<svg width="531" height="761" viewBox="0 0 531 761" fill="none" xmlns="http://www.w3.org/2000/svg">
<path d="M176.604 563.553C51.366 512.938 30.1796 413.926 111.154 266.656C192.129 119.386 376.536 65.301 523.039 145.854C669.542 226.407 722.663 411.094 641.689 558.364C596.355 640.813 526.681 481.299 441.311 498.059C374.193 511.237 301.843 614.168 176.604 563.553Z" fill="url(#paint0_linear)"/>
<path d="M429.27 459.921C422.699 459.921 416.427 460.047 410.685 460.276C410.694 460.229 410.7 460.182 410.701 460.134C410.701 458.142 403.859 456.322 392.574 454.933C425.808 453.128 448.085 449.815 448.085 446.025C448.085 440.307 397.363 435.671 334.794 435.671C272.225 435.671 221.503 440.307 221.503 446.025C221.503 447.092 223.269 448.12 226.545 449.089C207.026 449.751 193 451.58 193 453.731C193 456.443 215.265 458.64 242.73 458.64C251.522 458.64 259.779 458.415 266.945 458.02C265.215 458.693 264.287 459.402 264.287 460.134C264.287 464.496 297.063 468.031 337.494 468.031C354.293 468.031 369.766 467.421 382.12 466.394C388.737 468.338 407.346 469.739 429.27 469.739C456.735 469.739 479 467.541 479 464.83C479 462.119 456.735 459.921 429.27 459.921Z" fill="#3F3D56"/>
<path d="M233.996 431.558C236.859 442.14 246.664 448.694 246.664 448.694C246.664 448.694 251.828 438.091 248.965 427.508C246.103 416.926 236.297 410.372 236.297 410.372C236.297 410.372 231.133 420.976 233.996 431.558Z" fill="#3F3D56"/>
<path d="M238.202 429.284C246.058 436.931 247.017 448.686 247.017 448.686C247.017 448.686 235.241 448.043 227.385 440.396C219.53 432.749 218.571 420.994 218.571 420.994C218.571 420.994 230.347 421.637 238.202 429.284Z" fill="white"/>
<path d="M337.102 204.206C337.102 204.206 338.004 205.239 336.459 207.238C334.915 209.237 336.162 213.575 339.096 213.685C342.031 213.796 343.454 215.025 342.747 216.644C342.039 218.263 341.189 222.11 344.385 221.525C347.581 220.94 348.591 222.213 348.025 223.191C347.459 224.168 349.45 221.246 349.45 221.246C349.45 221.246 351.231 223.899 353.417 222.042C355.603 220.184 356.472 203.349 352.016 203.063C347.559 202.778 337.102 204.206 337.102 204.206Z" fill="#2F2E41"/>
<path d="M359.693 284.27L360.709 291.378H365.279L363.755 283.255L359.693 284.27Z" fill="#9F616A"/>
<path d="M365.786 287.062C365.786 287.062 371.879 292.648 370.356 293.155C368.833 293.663 363.248 299.756 362.232 300.264C361.324 300.718 351.569 303.818 353.093 300.264C354.616 296.71 358.17 294.679 358.17 294.679L359.186 288.586L365.786 287.062Z" fill="#F2F2F2"/>
<path opacity="0.1" d="M365.786 287.062C365.786 287.062 371.879 292.648 370.356 293.155C368.833 293.663 363.248 299.756 362.232 300.264C361.324 300.718 351.569 303.818 353.093 300.264C354.616 296.71 358.17 294.679 358.17 294.679L359.186 288.586L365.786 287.062Z" fill="black"/>
<path d="M365.786 278.938L366.802 286.047H371.371L369.848 277.923L365.786 278.938Z" fill="#9F616A"/>
<path d="M346.692 260.069L353.347 238.065C353.347 238.065 342.176 227.91 349.792 224.864C357.408 221.817 359.439 237.05 359.439 237.05L356.901 263.452H346.746L346.692 260.069Z" fill="#FFB8B8"/>
<path d="M362.232 243.904C362.232 243.904 349.109 260.735 351.101 263.236C353.093 265.737 356.647 280.97 356.647 280.97C356.647 280.97 356.139 287.062 358.17 287.062C360.201 287.062 365.279 286.047 365.279 284.524C365.279 283.001 360.709 263.706 360.709 263.706L373.91 246.443L362.232 243.904Z" fill="white"/>
<path d="M363.248 244.92L376.449 237.811C376.449 237.811 385.588 242.381 383.05 246.443C380.511 250.505 368.833 261.168 368.833 261.168C368.833 261.168 372.387 278.431 371.879 278.939C371.371 279.446 365.786 281.477 364.263 280.97C362.74 280.462 354.616 260.66 356.647 259.644C358.678 258.629 365.279 247.966 365.279 247.966L363.248 244.92Z" fill="white"/>
<path d="M327.198 431.262C327.198 431.262 336.337 436.847 337.353 436.847C338.368 436.847 352.077 440.401 345.984 442.94C339.891 445.479 316.535 441.924 317.043 440.401C317.551 438.878 317.043 429.739 318.058 429.739C319.074 429.739 327.198 431.262 327.198 431.262Z" fill="#2F2E41"/>
<path d="M337.353 438.37C337.353 438.37 346.492 443.955 347.507 443.955C348.523 443.955 362.232 447.51 356.139 450.048C350.046 452.587 326.69 449.033 327.198 447.51C327.705 445.986 327.198 436.847 328.213 436.847C329.229 436.847 337.353 438.37 337.353 438.37Z" fill="#2F2E41"/>
<path d="M327.705 330.729C327.705 330.729 329.229 338.345 331.767 343.93C334.306 349.515 331.26 375.918 329.736 379.98C328.213 384.042 313.489 432.277 318.058 432.785C322.628 433.293 331.767 432.785 331.767 432.785L346.492 386.58L343.953 324.636L327.705 330.729Z" fill="#575A88"/>
<path opacity="0.1" d="M327.705 330.729C327.705 330.729 329.229 338.345 331.767 343.93C334.306 349.515 331.26 375.918 329.736 379.98C328.213 384.042 313.489 432.277 318.058 432.785C322.628 433.293 331.767 432.785 331.767 432.785L346.492 386.58L343.953 324.636L327.705 330.729Z" fill="black"/>
<path d="M330.752 331.236C330.752 331.236 332.783 344.945 337.353 347.992C341.922 351.038 340.399 354.085 340.399 354.085L338.368 380.995C338.368 380.995 318.566 429.739 324.659 435.832C330.752 441.924 336.337 439.386 338.876 438.878C341.415 438.37 345.984 427.708 343.446 424.661C340.907 421.615 348.523 403.336 350.554 400.289C352.585 397.243 350.554 393.181 353.093 392.166C355.631 391.15 361.217 384.549 361.217 379.98C361.217 375.41 368.325 326.666 363.755 323.62C359.186 320.574 329.894 329.908 329.894 329.908L330.752 331.236Z" fill="#575A88"/>
<path d="M321.105 260.152C327.274 260.152 332.275 255.151 332.275 248.982C332.275 242.812 327.274 237.811 321.105 237.811C314.936 237.811 309.934 242.812 309.934 248.982C309.934 255.151 314.936 260.152 321.105 260.152Z" fill="#FFB8B8"/>
<path d="M346.492 217.502C351.54 217.502 355.631 213.41 355.631 208.362C355.631 203.315 351.54 199.223 346.492 199.223C341.444 199.223 337.353 203.315 337.353 208.362C337.353 213.41 341.444 217.502 346.492 217.502Z" fill="#9F616A"/>
<path d="M328.721 248.982C328.721 248.982 334.814 260.152 337.86 260.152C340.907 260.152 325.674 271.83 325.674 271.83C325.674 271.83 320.597 257.105 319.582 256.598C318.566 256.09 328.721 248.982 328.721 248.982Z" fill="#FFB8B8"/>
<path d="M330.752 259.137C330.752 259.137 317.551 263.706 318.058 265.229C318.566 266.753 314.504 270.307 314.504 271.83C314.504 273.353 313.489 287.062 319.582 298.233C325.674 309.403 335.322 317.527 330.752 322.605C326.182 327.682 319.074 336.314 326.69 336.314C334.306 336.314 346.492 325.143 357.662 329.205C368.833 333.267 366.294 318.035 366.294 318.035C366.294 318.035 367.817 306.357 364.771 302.803C361.724 299.248 351.062 273.861 351.062 270.815C351.062 267.768 340.907 256.09 338.368 256.09C335.829 256.09 330.752 259.137 330.752 259.137Z" fill="#8985A8"/>
<path d="M349.031 213.947C349.031 213.947 353.165 221.808 353.383 223.209C353.6 224.61 360.709 213.947 360.709 213.947L352.585 208.362L349.031 213.947Z" fill="#9F616A"/>
<path d="M350.554 220.04L359.186 210.901L369.34 215.47C369.34 215.47 378.811 236.288 379.407 237.811C380.003 239.334 364.263 246.443 362.74 246.443C361.217 246.443 350.554 230.703 350.554 230.703C350.554 230.703 348.015 223.087 350.554 220.04Z" fill="#F2F2F2"/>
<path d="M346.492 232.226V241.365H352.585L350.581 232.226H346.492Z" fill="#9F616A"/>
<path d="M349.968 239.081C349.198 239.07 348.444 239.295 347.805 239.724C347.165 240.154 346.673 240.768 346.392 241.485C345.995 242.559 346.129 243.687 348.015 244.158C352.077 245.174 352.585 244.158 352.585 244.158C352.585 244.158 359.636 243.143 358.142 241.112C356.647 239.081 352.585 239.081 352.585 239.081H349.968Z" fill="#9F616A"/>
<path d="M371.879 283.001C371.879 283.001 377.972 288.586 376.449 289.094C374.926 289.601 369.34 295.694 368.325 296.202C367.417 296.656 357.662 299.756 359.186 296.202C360.709 292.648 364.263 290.617 364.263 290.617L365.279 284.524L371.879 283.001Z" fill="#F2F2F2"/>
<path d="M317.125 240.383C317.824 239.974 318.649 239.464 318.669 238.654C318.651 238.356 318.546 238.071 318.368 237.832C318.189 237.593 317.945 237.411 317.665 237.309C317.102 237.115 316.505 237.034 315.911 237.073C315.682 237.061 315.454 237.084 315.232 237.14C314.654 237.318 314.321 237.906 313.865 238.304C313.204 238.883 312.293 239.053 311.442 239.274C310.016 239.643 308.65 240.21 307.38 240.957C307.13 241.083 306.91 241.264 306.738 241.485C306.538 241.893 306.449 242.347 306.479 242.8C306.365 244.522 305.332 246.022 304.561 247.567C303.79 249.112 303.283 251.036 304.188 252.506C304.547 252.964 304.883 253.44 305.193 253.932C305.834 255.268 305.033 256.914 305.497 258.322C305.704 258.876 306.037 259.375 306.469 259.78C307.361 260.678 308.459 261.343 309.668 261.717C310.822 262.072 312.254 262.309 312.706 263.428C312.899 263.909 312.86 264.474 313.133 264.914C313.472 265.459 314.171 265.635 314.802 265.751C315.51 265.913 316.239 265.966 316.963 265.908C317.325 265.876 317.677 265.772 317.997 265.6C318.318 265.429 318.6 265.194 318.827 264.91C319.032 264.509 319.285 264.135 319.582 263.796C320.317 263.182 321.434 263.667 322.378 263.505C322.76 263.432 323.114 263.252 323.398 262.986C323.682 262.72 323.884 262.378 323.98 262C324.006 261.599 324.117 261.207 324.306 260.851C324.892 260.101 326.435 260.63 326.822 259.76C327.074 259.195 326.547 258.598 326.038 258.246C325.209 257.672 324.281 257.23 323.537 256.549C322.793 255.868 322.242 254.848 322.475 253.867C322.824 252.394 324.747 251.584 324.81 250.072C324.847 249.206 324.224 248.446 323.528 247.93C322.831 247.415 322.024 247.044 321.401 246.441C320.946 246 320.602 245.447 320.107 245.052C319.212 244.336 317.988 244.249 316.848 244.132C316.237 244.07 313.798 243.787 313.894 242.856C313.973 242.083 316.504 240.747 317.125 240.383Z" fill="#2F2E41"/>
<path d="M350.554 219.532C350.554 219.532 344.969 221.563 344.969 224.102C344.969 226.641 342.43 234.765 344.969 234.765C347.507 234.765 352.585 232.816 352.585 232.816L350.554 219.532Z" fill="#F2F2F2"/>
<path d="M349.031 256.09C349.031 256.09 363.755 251.013 364.263 251.013C364.771 251.013 371.879 246.951 371.371 245.427L369.34 232.734C369.34 232.734 361.217 215.978 366.802 215.978C372.387 215.978 375.433 229.18 375.433 229.18C375.433 229.18 387.619 252.028 381.019 257.106C374.418 262.183 347 271.322 345.476 269.799C343.953 268.276 349.031 256.09 349.031 256.09Z" fill="#FFB8B8"/>
<path d="M363.248 223.087L366.675 226.389L362.232 230.703C362.232 230.703 356.139 228.164 356.647 229.687C357.155 231.211 360.201 235.78 362.232 235.78C364.263 235.78 374.833 229.18 374.879 227.149C374.926 225.118 368.325 218.009 366.802 217.501C365.279 216.994 363.248 223.087 363.248 223.087Z" fill="#9F616A"/>
<path d="M356.803 219.547C356.803 219.547 364.263 226.133 365.279 226.133C366.294 226.133 368.141 216.238 368.141 216.238C368.141 216.238 362.122 212.317 359.892 213.386C357.662 214.455 356.803 219.547 356.803 219.547Z" fill="#F2F2F2"/>
<path d="M330.752 262.183C330.752 262.183 330.752 255.075 345.984 255.075H352.585L349.538 271.83L339.384 274.877L330.752 262.183Z" fill="#8985A8"/>
<path d="M364.025 204.658C362.532 204.651 361.041 204.559 359.559 204.382C358.394 201.569 356.912 199.208 355.308 198.328C354.169 197.31 352.413 196.569 351.036 195.984C347.653 194.547 342.021 195.443 341.692 197.078C335.035 200.259 336.717 205.845 336.717 205.845C337.751 208.031 340.072 207.062 342.04 206.072C342.543 207.657 343.731 209.002 345.431 209.066C348.682 209.189 350.258 210.55 349.474 212.344C348.691 214.138 347.749 218.399 351.289 217.751C354.83 217.103 355.949 218.513 355.322 219.596C354.695 220.679 356.9 217.442 356.9 217.442C356.9 217.442 358.873 220.381 361.295 218.324C361.54 218.088 361.714 217.789 361.799 217.459C362.925 217.944 363.817 218.128 364.324 217.901C367.224 216.604 365.423 213.556 365.423 213.556C365.423 213.556 369.295 212.962 368.047 213.061C366.8 213.159 366.01 211.542 368.122 208.627C370.233 205.712 365.981 204.724 364.025 204.658Z" fill="#2F2E41"/>
<path d="M344.382 202.373L342.937 201.892L341.494 206.228L342.939 206.709L344.382 202.373Z" fill="white"/>
<path d="M254.492 283.525C234.738 283.616 218.659 283.908 218.659 283.908C218.659 283.908 237.771 258.591 254.42 267.971C271.069 277.35 290.194 283.578 290.194 283.578C290.194 283.578 274.246 283.434 254.492 283.525Z" fill="#F2F2F2"/>
<path d="M396.638 183.638C376.884 183.729 360.805 184.021 360.805 184.021C360.805 184.021 379.918 158.705 396.567 168.084C413.215 177.464 432.341 183.691 432.341 183.691C432.341 183.691 416.392 183.547 396.638 183.638Z" fill="#F2F2F2"/>
<path d="M429.46 290.782C449.214 290.873 465.293 291.164 465.293 291.164C465.293 291.164 446.181 265.848 429.532 275.228C412.883 284.607 393.758 290.835 393.758 290.835C393.758 290.835 409.706 290.69 429.46 290.782Z" fill="#F2F2F2"/>
<defs>
<linearGradient id="paint0_linear" x1="85" y1="343.5" x2="649.5" y2="347" gradientUnits="userSpaceOnUse">
<stop stop-color="#EB7722"/>
<stop offset="1" stop-color="#F86D70"/>
</linearGradient>
</defs>
</svg>
