<svg width="529" height="414" viewBox="0 0 529 414" fill="none" xmlns="http://www.w3.org/2000/svg">
<g clip-path="url(#clip0)">
<path opacity="0.1" d="M522.979 296.868C520.78 302.464 518.067 307.844 514.875 312.94C514.875 312.979 514.825 313.024 514.796 313.063C513.409 315.202 511.506 316.956 509.261 318.165C507.017 319.373 504.504 319.996 501.954 319.976H43.5565C10.0952 319.976 -10.8706 285.442 5.90696 257.854C36.0987 208.23 64.626 139.349 30.1078 91.8772C-25.322 15.5446 34.38 1.69424 73.7631 0.109226C88.9162 -0.496067 104.03 2.05475 118.144 7.59978C136.339 14.7496 169.593 25.6818 212.918 30.6985C214.34 30.8664 215.772 31.0244 217.224 31.1923C240.157 33.6014 263.254 34.0326 286.261 32.4811C286.938 32.4465 287.614 32.3922 288.306 32.3428C311.085 30.6784 333.678 27.0572 355.836 21.5193C357.273 21.1588 358.691 20.8181 360.098 20.4774C434.004 2.82005 502.132 62.9864 485.098 130.959C478.801 156.112 480.401 182.919 501.396 204.601C535.747 240.044 531.583 274.904 522.979 296.868Z" fill="#EB7722"/>
<path d="M447.404 302.965H453.395C456.669 302.965 459.81 304.266 462.126 306.581C464.441 308.896 465.742 312.035 465.742 315.309V333.633H435.056V315.309C435.056 312.035 436.357 308.896 438.673 306.581C440.988 304.266 444.129 302.965 447.404 302.965Z" fill="#3F3D56"/>
<path opacity="0.1" d="M447.404 302.965H453.395C456.669 302.965 459.81 304.266 462.126 306.581C464.441 308.896 465.742 312.035 465.742 315.309V333.633H435.056V315.309C435.056 312.035 436.357 308.896 438.673 306.581C440.988 304.266 444.129 302.965 447.404 302.965Z" fill="black"/>
<path d="M449.167 309.715C450.523 309.715 451.622 308.616 451.622 307.261C451.622 305.905 450.523 304.807 449.167 304.807C447.811 304.807 446.712 305.905 446.712 307.261C446.712 308.616 447.811 309.715 449.167 309.715Z" fill="#3F3D56"/>
<path d="M449.167 306.649C450.523 306.649 451.622 305.55 451.622 304.194C451.622 302.839 450.523 301.74 449.167 301.74C447.811 301.74 446.712 302.839 446.712 304.194C446.712 305.55 447.811 306.649 449.167 306.649Z" fill="#3F3D56"/>
<path d="M449.167 303.582C450.523 303.582 451.622 302.483 451.622 301.128C451.622 299.773 450.523 298.674 449.167 298.674C447.811 298.674 446.712 299.773 446.712 301.128C446.712 302.483 447.811 303.582 449.167 303.582Z" fill="#3F3D56"/>
<path d="M449.167 300.511C450.523 300.511 451.622 299.412 451.622 298.057C451.622 296.702 450.523 295.603 449.167 295.603C447.811 295.603 446.712 296.702 446.712 298.057C446.712 299.412 447.811 300.511 449.167 300.511Z" fill="#3F3D56"/>
<path d="M449.167 297.445C450.523 297.445 451.622 296.346 451.622 294.991C451.622 293.635 450.523 292.536 449.167 292.536C447.811 292.536 446.712 293.635 446.712 294.991C446.712 296.346 447.811 297.445 449.167 297.445Z" fill="#3F3D56"/>
<path d="M449.167 294.378C450.523 294.378 451.622 293.28 451.622 291.924C451.622 290.569 450.523 289.47 449.167 289.47C447.811 289.47 446.712 290.569 446.712 291.924C446.712 293.28 447.811 294.378 449.167 294.378Z" fill="#3F3D56"/>
<path d="M449.167 291.312C450.523 291.312 451.622 290.213 451.622 288.858C451.622 287.503 450.523 286.404 449.167 286.404C447.811 286.404 446.712 287.503 446.712 288.858C446.712 290.213 447.811 291.312 449.167 291.312Z" fill="#3F3D56"/>
<path d="M452.851 292.541C454.207 292.541 455.306 291.443 455.306 290.087C455.306 288.732 454.207 287.633 452.851 287.633C451.496 287.633 450.397 288.732 450.397 290.087C450.397 291.443 451.496 292.541 452.851 292.541Z" fill="#3F3D56"/>
<path d="M455.306 291.312C456.662 291.312 457.761 290.213 457.761 288.858C457.761 287.503 456.662 286.404 455.306 286.404C453.95 286.404 452.851 287.503 452.851 288.858C452.851 290.213 453.95 291.312 455.306 291.312Z" fill="#3F3D56"/>
<path d="M457.756 290.087C459.111 290.087 460.21 288.989 460.21 287.633C460.21 286.278 459.111 285.179 457.756 285.179C456.4 285.179 455.301 286.278 455.301 287.633C455.301 288.989 456.4 290.087 457.756 290.087Z" fill="#3F3D56"/>
<path d="M449.167 288.246C450.523 288.246 451.622 287.147 451.622 285.792C451.622 284.436 450.523 283.338 449.167 283.338C447.811 283.338 446.712 284.436 446.712 285.792C446.712 287.147 447.811 288.246 449.167 288.246Z" fill="#3F3D56"/>
<path d="M449.167 285.179C450.523 285.179 451.622 284.081 451.622 282.725C451.622 281.37 450.523 280.271 449.167 280.271C447.811 280.271 446.712 281.37 446.712 282.725C446.712 284.081 447.811 285.179 449.167 285.179Z" fill="#3F3D56"/>
<path d="M449.167 282.113C450.523 282.113 451.622 281.014 451.622 279.659C451.622 278.304 450.523 277.205 449.167 277.205C447.811 277.205 446.712 278.304 446.712 279.659C446.712 281.014 447.811 282.113 449.167 282.113Z" fill="#3F3D56"/>
<path d="M449.167 279.047C450.523 279.047 451.622 277.948 451.622 276.593C451.622 275.237 450.523 274.138 449.167 274.138C447.811 274.138 446.712 275.237 446.712 276.593C446.712 277.948 447.811 279.047 449.167 279.047Z" fill="#3F3D56"/>
<path d="M459.341 268.677C458.734 268.766 458.121 268.83 457.509 268.87C458.08 268.37 458.61 267.825 459.094 267.24C458.752 266.21 458.253 265.239 457.613 264.362C457.004 264.703 456.331 264.915 455.637 264.984C455.029 265.073 454.417 265.142 453.805 265.181C454.628 264.398 455.411 263.574 456.151 262.713C454.378 261.113 452.11 260.17 449.726 260.042C447.342 259.914 444.986 260.608 443.052 262.009C441.119 263.41 439.725 265.432 439.104 267.737C438.483 270.042 438.673 272.491 439.642 274.672C440.611 276.854 442.3 278.638 444.426 279.724C446.552 280.81 448.987 281.133 451.323 280.639C453.659 280.145 455.755 278.864 457.259 277.01C458.764 275.156 459.586 272.842 459.588 270.455C459.588 269.854 459.535 269.254 459.43 268.663L459.341 268.677Z" fill="#EB7722"/>
<path d="M467.545 280.869C466.918 281.252 466.212 281.489 465.48 281.56C464.873 281.649 464.26 281.713 463.648 281.752C464.299 281.169 464.906 280.538 465.465 279.866C463.986 279.48 462.415 279.66 461.061 280.371C459.706 281.081 458.666 282.271 458.142 283.708C457.619 285.145 457.65 286.725 458.23 288.14C458.811 289.555 459.898 290.702 461.279 291.358C462.66 292.015 464.237 292.132 465.7 291.688C467.164 291.243 468.409 290.27 469.192 288.956C469.976 287.643 470.241 286.085 469.936 284.586C469.632 283.088 468.779 281.757 467.545 280.854V280.869Z" fill="#EB7722"/>
<path d="M445.487 292.541C446.843 292.541 447.942 291.443 447.942 290.087C447.942 288.732 446.843 287.633 445.487 287.633C444.132 287.633 443.033 288.732 443.033 290.087C443.033 291.443 444.132 292.541 445.487 292.541Z" fill="#3F3D56"/>
<path d="M443.033 291.312C444.388 291.312 445.487 290.213 445.487 288.858C445.487 287.503 444.388 286.404 443.033 286.404C441.677 286.404 440.578 287.503 440.578 288.858C440.578 290.213 441.677 291.312 443.033 291.312Z" fill="#3F3D56"/>
<path d="M440.578 290.087C441.934 290.087 443.033 288.989 443.033 287.633C443.033 286.278 441.934 285.179 440.578 285.179C439.222 285.179 438.124 286.278 438.124 287.633C438.124 288.989 439.222 290.087 440.578 290.087Z" fill="#3F3D56"/>
<path d="M430.794 280.869C431.421 281.253 432.127 281.49 432.859 281.56C433.466 281.649 434.079 281.713 434.691 281.752C434.039 281.17 433.431 280.54 432.873 279.866C434.353 279.48 435.924 279.66 437.278 280.371C438.633 281.081 439.673 282.271 440.197 283.708C440.72 285.145 440.689 286.725 440.108 288.14C439.528 289.555 438.441 290.702 437.06 291.358C435.678 292.015 434.102 292.132 432.638 291.688C431.175 291.243 429.93 290.27 429.147 288.956C428.363 287.643 428.098 286.085 428.403 284.586C428.707 283.088 429.56 281.757 430.794 280.854V280.869Z" fill="#EB7722"/>
<path d="M447.404 304.807H453.395C456.669 304.807 459.81 306.107 462.126 308.422C464.441 310.737 465.742 313.877 465.742 317.151V333.381C465.742 333.937 465.521 334.469 465.129 334.862C464.736 335.255 464.203 335.475 463.648 335.475H437.151C436.595 335.475 436.063 335.255 435.67 334.862C435.277 334.469 435.056 333.937 435.056 333.381V317.151C435.056 313.877 436.357 310.737 438.673 308.422C440.988 306.107 444.129 304.807 447.404 304.807Z" fill="#3F3D56"/>
<g opacity="0.1">
<path opacity="0.1" d="M459.529 269.349C459.28 269.614 459.017 269.865 458.739 270.099C459.02 270.099 459.297 270.055 459.578 270.025C459.588 269.798 459.554 269.571 459.529 269.349Z" fill="black"/>
<path opacity="0.1" d="M455.054 266.416C455.672 266.376 456.279 266.312 456.891 266.223C457.441 266.154 457.978 266.007 458.487 265.789C458.237 265.295 457.95 264.821 457.627 264.372C457.32 264.559 456.987 264.7 456.64 264.791C456.155 265.374 455.625 265.917 455.054 266.416Z" fill="black"/>
<path opacity="0.1" d="M439.966 271.684C439.962 269.812 440.463 267.974 441.417 266.363C442.371 264.752 443.741 263.428 445.384 262.53C447.028 261.632 448.882 261.194 450.754 261.262C452.625 261.33 454.443 261.901 456.017 262.915L456.175 262.747C455.148 261.833 453.95 261.132 452.651 260.683C451.351 260.234 449.976 260.047 448.603 260.132C447.231 260.217 445.889 260.573 444.655 261.179C443.421 261.785 442.319 262.629 441.412 263.662C440.506 264.696 439.813 265.898 439.374 267.201C438.934 268.503 438.757 269.88 438.852 271.251C438.947 272.622 439.313 273.961 439.928 275.191C440.543 276.42 441.395 277.516 442.435 278.414C440.838 276.536 439.962 274.15 439.966 271.684Z" fill="black"/>
</g>
<g opacity="0.1">
<path opacity="0.1" d="M463.648 282.977C464.26 282.938 464.873 282.873 465.48 282.784C466.212 282.715 466.919 282.479 467.545 282.093C468.238 282.604 468.816 283.254 469.242 284.003C469.667 284.752 469.93 285.581 470.014 286.438C470.038 286.224 470.05 286.008 470.049 285.792C470.053 284.833 469.832 283.886 469.403 283.028C468.974 282.17 468.35 281.425 467.579 280.854C466.952 281.237 466.246 281.474 465.515 281.545L465.021 281.604C464.6 282.097 464.14 282.556 463.648 282.977Z" fill="black"/>
<path opacity="0.1" d="M463.895 280.883C464.1 280.886 464.304 280.901 464.507 280.928C464.828 280.587 465.144 280.222 465.465 279.866C464.557 279.624 463.606 279.593 462.684 279.778C461.763 279.962 460.896 280.356 460.151 280.929C459.406 281.501 458.803 282.238 458.388 283.081C457.974 283.925 457.759 284.852 457.761 285.792C457.761 285.999 457.761 286.201 457.79 286.404C457.942 284.891 458.651 283.488 459.779 282.468C460.907 281.448 462.374 280.883 463.895 280.883Z" fill="black"/>
</g>
<g opacity="0.1">
<path opacity="0.1" d="M434.691 282.977C434.079 282.938 433.466 282.873 432.859 282.784C432.126 282.716 431.42 282.48 430.794 282.093C430.101 282.604 429.522 283.254 429.097 284.003C428.672 284.752 428.408 285.581 428.325 286.438C428.301 286.224 428.289 286.008 428.29 285.792C428.285 284.833 428.507 283.886 428.936 283.028C429.365 282.17 429.989 281.425 430.76 280.854C431.386 281.238 432.092 281.475 432.824 281.545L433.318 281.604C433.737 282.099 434.196 282.558 434.691 282.977Z" fill="black"/>
<path opacity="0.1" d="M434.444 280.883C434.238 280.886 434.031 280.901 433.827 280.928C433.511 280.587 433.194 280.222 432.873 279.866C433.781 279.624 434.733 279.593 435.655 279.778C436.576 279.962 437.443 280.356 438.188 280.929C438.933 281.501 439.536 282.238 439.95 283.081C440.365 283.925 440.58 284.852 440.578 285.792C440.578 285.999 440.578 286.201 440.549 286.404C440.397 284.891 439.688 283.488 438.56 282.468C437.432 281.448 435.965 280.883 434.444 280.883Z" fill="black"/>
</g>
<path d="M108.202 330.873H33.1304C32.2842 330.873 31.4727 330.537 30.8744 329.939C30.276 329.341 29.9399 328.529 29.9399 327.683V292.176C29.939 291.638 30.0748 291.108 30.3344 290.636C30.5939 290.164 30.9689 289.766 31.4243 289.478C31.8796 289.191 32.4004 289.024 32.938 288.992C33.4757 288.96 34.0125 289.065 34.4985 289.297C56.0767 299.528 79.2898 303.039 106.77 289.46C107.257 289.217 107.797 289.103 108.34 289.127C108.883 289.151 109.411 289.314 109.874 289.599C110.337 289.884 110.72 290.283 110.985 290.757C111.251 291.232 111.391 291.766 111.393 292.309V327.693C111.39 328.537 111.053 329.346 110.455 329.942C109.857 330.538 109.047 330.873 108.202 330.873Z" fill="#EB7722"/>
<path opacity="0.1" d="M108.202 330.873H33.1304C32.2842 330.873 31.4727 330.537 30.8744 329.939C30.276 329.341 29.9399 328.529 29.9399 327.683V292.176C29.939 291.638 30.0748 291.108 30.3344 290.636C30.5939 290.164 30.9689 289.766 31.4243 289.478C31.8796 289.191 32.4004 289.024 32.938 288.992C33.4757 288.96 34.0125 289.065 34.4985 289.297C56.0767 299.528 79.2898 303.039 106.77 289.46C107.257 289.217 107.797 289.103 108.34 289.127C108.883 289.151 109.411 289.314 109.874 289.599C110.337 289.884 110.72 290.283 110.985 290.757C111.251 291.232 111.391 291.766 111.393 292.309V327.693C111.39 328.537 111.053 329.346 110.455 329.942C109.857 330.538 109.047 330.873 108.202 330.873Z" fill="black"/>
<path d="M70.1478 303.864C72.6027 303.864 74.5928 301.259 74.5928 298.047C74.5928 294.835 72.6027 292.23 70.1478 292.23C67.6928 292.23 65.7027 294.835 65.7027 298.047C65.7027 301.259 67.6928 303.864 70.1478 303.864Z" fill="#3F3D56"/>
<path d="M70.1478 296.753C72.6027 296.753 74.5928 294.149 74.5928 290.937C74.5928 287.724 72.6027 285.12 70.1478 285.12C67.6928 285.12 65.7027 287.724 65.7027 290.937C65.7027 294.149 67.6928 296.753 70.1478 296.753Z" fill="#3F3D56"/>
<path d="M70.1478 289.643C72.6027 289.643 74.5928 287.039 74.5928 283.826C74.5928 280.614 72.6027 278.01 70.1478 278.01C67.6928 278.01 65.7027 280.614 65.7027 283.826C65.7027 287.039 67.6928 289.643 70.1478 289.643Z" fill="#3F3D56"/>
<path d="M70.1478 282.533C72.6027 282.533 74.5928 279.928 74.5928 276.716C74.5928 273.504 72.6027 270.899 70.1478 270.899C67.6928 270.899 65.7027 273.504 65.7027 276.716C65.7027 279.928 67.6928 282.533 70.1478 282.533Z" fill="#3F3D56"/>
<path d="M70.1478 275.422C72.6027 275.422 74.5928 272.818 74.5928 269.606C74.5928 266.393 72.6027 263.789 70.1478 263.789C67.6928 263.789 65.7027 266.393 65.7027 269.606C65.7027 272.818 67.6928 275.422 70.1478 275.422Z" fill="#3F3D56"/>
<path d="M70.1478 268.312C72.6027 268.312 74.5928 265.708 74.5928 262.495C74.5928 259.283 72.6027 256.679 70.1478 256.679C67.6928 256.679 65.7027 259.283 65.7027 262.495C65.7027 265.708 67.6928 268.312 70.1478 268.312Z" fill="#3F3D56"/>
<path d="M70.1478 261.202C72.6027 261.202 74.5928 258.597 74.5928 255.385C74.5928 252.173 72.6027 249.568 70.1478 249.568C67.6928 249.568 65.7027 252.173 65.7027 255.385C65.7027 258.597 67.6928 261.202 70.1478 261.202Z" fill="#3F3D56"/>
<path d="M86.787 206.728C87.3946 205.955 87.9475 205.14 88.4416 204.289L76.761 202.373L89.3948 202.467C90.6049 199.831 91.2649 196.975 91.3345 194.075C91.4042 191.175 90.882 188.291 89.7998 185.6L72.8691 194.389L88.4959 182.904C87.0302 180.377 85.06 178.179 82.708 176.446C80.3559 174.714 77.6724 173.484 74.8244 172.832C71.9763 172.181 69.0247 172.123 66.1532 172.661C63.2817 173.2 60.5517 174.323 58.1332 175.962C55.7146 177.6 53.6593 179.719 52.095 182.186C50.5307 184.653 49.491 187.415 49.0405 190.301C48.59 193.187 48.7384 196.135 49.4765 198.961C50.2146 201.787 51.5265 204.431 53.3307 206.728C52.3831 207.931 51.5684 209.232 50.9007 210.609L66.0633 218.485L49.8981 213.054C48.7612 216.409 48.4797 219.994 49.0791 223.485C49.6785 226.976 51.1398 230.263 53.3307 233.047C50.8605 236.186 49.3239 239.958 48.8966 243.93C48.4693 247.902 49.1685 251.913 50.9143 255.507C52.66 259.1 55.3819 262.129 58.7687 264.249C62.1555 266.369 66.0706 267.493 70.0663 267.493C74.0619 267.493 77.977 266.369 81.3638 264.249C84.7506 262.129 87.4725 259.1 89.2183 255.507C90.964 251.913 91.6632 247.902 91.2359 243.93C90.8086 239.958 89.272 236.186 86.8019 233.047C89.7519 229.293 91.3555 224.658 91.3555 219.885C91.3555 215.112 89.7519 210.477 86.8019 206.723L86.787 206.728Z" fill="#EB7722"/>
<path opacity="0.1" d="M48.7572 219.888C48.7527 224.663 50.3587 229.301 53.3159 233.052C50.8457 236.191 49.3091 239.963 48.8818 243.935C48.4545 247.906 49.1537 251.918 50.8995 255.512C52.6452 259.105 55.3671 262.134 58.7539 264.254C62.1407 266.374 66.0558 267.498 70.0515 267.498C74.0471 267.498 77.9622 266.374 81.349 264.254C84.7358 262.134 87.4577 259.105 89.2035 255.512C90.9493 251.918 91.6485 247.906 91.2211 243.935C90.7938 239.963 89.2572 236.191 86.7871 233.052C89.6615 229.427 48.7572 217.498 48.7572 219.888Z" fill="black"/>
<path d="M108.202 332.754H33.1304C32.2838 332.753 31.4723 332.416 30.8741 331.817C30.2758 331.218 29.9399 330.406 29.9399 329.56V292.176C29.939 291.638 30.0748 291.108 30.3344 290.636C30.5939 290.164 30.9689 289.766 31.4243 289.478C31.8796 289.191 32.4004 289.024 32.938 288.992C33.4757 288.96 34.0125 289.065 34.4985 289.297C56.0669 299.528 73.1704 311.453 106.77 289.45C108.746 288.152 111.393 289.944 111.393 292.299V329.56C111.393 330.406 111.057 331.218 110.459 331.817C109.86 332.416 109.049 332.753 108.202 332.754Z" fill="#EB7722"/>
<path d="M143.15 342.734L153.799 360.1C153.799 360.1 179.012 371.303 209.831 342.734C240.65 314.164 209.831 289.52 209.831 289.52L172.295 299.188L143.15 342.734Z" fill="#F86D70"/>
<path opacity="0.15" d="M143.15 342.734L153.799 360.1C153.799 360.1 179.012 371.303 209.831 342.734C240.65 314.164 209.831 289.52 209.831 289.52L172.295 299.188L143.15 342.734Z" fill="black"/>
<path d="M192.347 388.215L177.688 394.402C162.294 400.905 146.874 407.418 130.971 412.558C126.61 413.97 121.33 415.111 117.858 412.124C114.386 409.136 114.741 403.641 116.579 399.488C117.26 397.947 118.11 396.461 118.446 394.812C118.89 392.639 118.401 390.398 118.075 388.2C117.581 384.838 117.492 381.352 118.421 378.083C119.349 374.814 121.384 371.763 124.397 370.153C126.615 368.958 129.706 368.77 131.391 370.647C132.769 372.177 132.749 374.513 133.742 376.32C135.06 378.71 138.024 379.811 140.75 379.693C143.476 379.574 146.049 378.448 148.553 377.347C168.368 368.622 188.267 359.848 206.561 348.264C209.727 346.264 212.849 344.17 216.182 342.467C219.39 340.821 222.773 339.544 226.268 338.66C226.645 338.511 227.065 338.511 227.443 338.66C227.631 338.811 227.783 339.002 227.889 339.219C227.995 339.436 228.052 339.673 228.056 339.914C228.811 344.728 229.567 349.548 230.006 354.401C230.352 358.208 231.651 364.919 230.164 368.533C228.945 371.496 222.539 373.965 219.793 375.495C215.664 377.762 211.426 379.831 207.144 381.791C202.24 384.033 197.296 386.126 192.347 388.215Z" fill="#FBBEBE"/>
<path opacity="0.05" d="M192.347 388.215L177.688 394.402C162.294 400.905 146.874 407.418 130.971 412.558C126.61 413.97 121.33 415.111 117.858 412.124C114.386 409.136 114.741 403.641 116.579 399.488C117.26 397.947 118.11 396.461 118.446 394.812C118.89 392.639 118.401 390.398 118.075 388.2C117.581 384.838 117.492 381.352 118.421 378.083C119.349 374.814 121.384 371.763 124.397 370.153C126.615 368.958 129.706 368.77 131.391 370.647C132.769 372.177 132.749 374.513 133.742 376.32C135.06 378.71 138.024 379.811 140.75 379.693C143.476 379.574 146.049 378.448 148.553 377.347C168.368 368.622 188.267 359.848 206.561 348.264C209.727 346.264 212.849 344.17 216.182 342.467C219.39 340.821 222.773 339.544 226.268 338.66C226.645 338.511 227.065 338.511 227.443 338.66C227.631 338.811 227.783 339.002 227.889 339.219C227.995 339.436 228.052 339.673 228.056 339.914C228.811 344.728 229.567 349.548 230.006 354.401C230.352 358.208 231.651 364.919 230.164 368.533C228.945 371.496 222.539 373.965 219.793 375.495C215.664 377.762 211.426 379.831 207.144 381.791C202.24 384.033 197.296 386.126 192.347 388.215Z" fill="black"/>
<path d="M191.478 359.635C188.687 362.144 185.645 364.405 183.245 367.284C180.336 370.775 178.498 375.021 176.908 379.278C175.219 383.798 173.762 388.401 172.542 393.069C171.52 396.96 170.626 400.999 168.368 404.327C166.111 407.655 162.071 410.153 158.14 409.265C154.707 408.509 152.248 405.463 150.672 402.317C149.097 399.172 148.084 395.72 146.04 392.857C143.753 389.696 140.187 387.228 139.09 383.44C137.935 379.46 140.014 375.046 143.254 372.488C146.494 369.931 150.662 368.81 154.762 368.178C155.212 368.145 155.65 368.016 156.046 367.798C156.95 367.215 157.034 365.941 156.999 364.865C156.717 349.64 158.261 334.437 161.597 319.58C162.585 315.137 163.76 310.693 165.914 306.742C169.796 299.563 177.683 293.998 185.768 295.119C191.695 295.939 196.772 300.2 199.79 305.384C202.808 310.569 204.028 316.593 204.699 322.553C205.371 328.513 207.124 338.127 204.24 343.583C200.944 349.629 196.626 355.06 191.478 359.635Z" fill="#FBBEBE"/>
<path d="M285.505 144.528C285.011 148.359 284.626 152.561 286.725 155.81C288.004 157.786 290.049 159.148 292.069 160.368C295.005 162.137 298.034 163.747 301.142 165.192C301.503 165.318 301.815 165.552 302.036 165.864C302.197 166.298 302.185 166.777 302.001 167.202C298.33 179.69 293.814 191.915 288.483 203.79C288.229 204.502 287.807 205.142 287.254 205.657C286.642 206.072 285.939 206.333 285.204 206.417C270.618 209.114 255.549 206.368 242.853 198.7C241.316 197.816 239.894 196.746 238.62 195.515C237.448 194.279 236.451 192.889 235.657 191.382C229.73 180.618 230.411 167.582 231.246 155.336C234.684 155.677 238.155 155.448 241.519 154.66C243.184 154.328 244.774 153.696 246.211 152.793C249.002 150.907 250.498 147.653 251.723 144.513C253.606 139.664 255.159 134.694 256.371 129.635C256.805 127.828 277.075 131.462 279.114 131.917C281.362 132.41 286.715 132.751 287.446 135.373C288.088 137.63 285.836 142.108 285.505 144.528Z" fill="#FBBEBE"/>
<path opacity="0.05" d="M285.505 144.528C285.011 148.359 284.626 152.561 286.725 155.81C288.004 157.786 290.049 159.148 292.069 160.368C295.005 162.137 298.034 163.747 301.142 165.192C301.503 165.318 301.815 165.552 302.036 165.864C302.197 166.298 302.185 166.777 302.001 167.202C298.33 179.69 293.814 191.915 288.483 203.79C288.229 204.502 287.807 205.142 287.254 205.657C286.642 206.072 285.939 206.333 285.204 206.417C270.618 209.114 255.549 206.368 242.853 198.7C241.316 197.816 239.894 196.746 238.62 195.515C237.448 194.279 236.451 192.889 235.657 191.382C229.73 180.618 230.411 167.582 231.246 155.336C234.684 155.677 238.155 155.448 241.519 154.66C243.184 154.328 244.774 153.696 246.211 152.793C249.002 150.907 250.498 147.653 251.723 144.513C253.606 139.664 255.159 134.694 256.371 129.635C256.805 127.828 277.075 131.462 279.114 131.917C281.362 132.41 286.715 132.751 287.446 135.373C288.088 137.63 285.836 142.108 285.505 144.528Z" fill="black"/>
<path d="M209.949 248.398C222.791 247.776 235.345 252.077 247.372 256.669C259.398 261.261 271.963 265.67 284.804 266.544C285.708 263.251 286.671 259.942 287.881 256.748C289.063 253.539 290.604 250.475 292.474 247.613C294.03 245.292 295.872 243.134 297.057 240.611C299.394 235.629 298.939 229.867 298.673 224.376C298.406 218.885 301.098 201.327 304.244 196.809C302.016 193.421 299.744 195.149 297.517 191.767C296.331 189.955 291.862 194.626 290.108 193.327C288.266 191.955 285.989 191.313 283.747 190.789C271.256 187.827 258.134 187.639 245.999 183.457C242.798 182.356 239.361 180.988 236.155 182.04C234.895 182.523 233.712 183.189 232.644 184.015L225.077 189.372C224.376 189.866 223.941 189.827 223.596 190.622C221.788 194.856 220.648 199.345 220.217 203.929C219.724 209.276 220.173 214.673 219.57 220.006C218.821 226.094 217.249 232.052 214.898 237.718C213.43 241.359 211.778 244.924 209.949 248.398Z" fill="#F86D70"/>
<path d="M275.385 146.676C292.406 146.676 306.204 132.881 306.204 115.864C306.204 98.8474 292.406 85.0526 275.385 85.0526C258.365 85.0526 244.566 98.8474 244.566 115.864C244.566 132.881 258.365 146.676 275.385 146.676Z" fill="#FBBEBE"/>
<path d="M234.837 152.784C235.084 162.001 235.607 171.2 236.407 180.381C236.57 182.277 236.827 184.331 238.21 185.654C235.146 187.676 231.658 188.967 228.016 189.427C225.813 183.393 223.571 177.137 223.986 170.722C224.302 165.745 226.11 161.015 226.549 156.057C226.678 154.64 226.307 152.675 227.784 151.91C228.347 151.618 234.837 152.719 234.837 152.784Z" fill="#F86D70"/>
<path d="M217.195 243.811C215.076 244.003 213.244 245.292 211.51 246.522C190.91 261.493 172.636 279.817 158.392 300.941C154.846 306.199 151.546 311.631 147.773 316.741C137.757 330.295 124.654 341.233 111.274 351.473C114.766 351.315 118.683 351.414 122.179 351.256C124.106 351.167 126.066 351.083 127.943 351.533C129.82 351.982 131.643 353.058 132.546 354.762C133.381 356.332 133.603 358.539 135.268 359.166C136.021 359.367 136.811 359.377 137.569 359.196C143.191 358.427 148.914 359.342 154.016 361.823C154.204 357.593 154.836 353.394 155.903 349.296C156.495 346.936 157.266 344.625 158.056 342.319C159.829 337.159 161.721 331.994 164.615 327.362C167.887 322.138 172.337 317.751 177.609 314.554C179.081 313.578 180.734 312.907 182.469 312.579C186.82 311.942 191.018 315.087 193.029 318.998C195.039 322.909 195.345 327.441 195.612 331.836C195.941 337.218 196.27 342.602 196.599 347.987C196.718 349.938 196.871 351.997 197.968 353.616C198.827 351.957 200.891 351.641 202.497 350.683C205.564 348.861 209.006 346.97 212.503 347.686C216.4 348.476 218.923 352.214 220.657 355.789C223.694 362.057 225.659 368.79 226.47 375.708C233.755 371.807 238.492 364.386 240.22 356.303C241.208 351.735 241.035 346.985 241.89 342.393C243.015 336.378 245.826 330.806 249.994 326.325C259.196 316.475 273.835 313.102 282.888 303.118C284.078 301.8 285.194 300.294 285.411 298.531C285.668 296.423 284.582 294.373 284.532 292.25C284.453 288.655 287.229 285.742 289.471 282.942C291.636 280.264 293.46 277.329 294.904 274.203C295.665 272.549 296.331 270.746 296.173 268.949C296.015 267.152 294.83 265.285 293.042 264.92C289.773 264.253 286.523 268.549 283.584 266.959C282.838 266.483 282.232 265.819 281.826 265.033C279.956 261.987 278.647 258.631 277.959 255.123C270.55 252.422 262.752 251.464 255.116 249.529C251.866 248.704 248.695 247.608 245.475 246.665C236.373 243.994 226.683 243.954 217.195 243.811Z" fill="#F86D70"/>
<path d="M209.949 248.398C222.791 247.776 235.345 252.077 247.372 256.669C259.398 261.261 271.963 265.67 284.804 266.544C285.708 263.251 286.671 259.942 287.881 256.748C286.73 256.091 285.332 255.627 284.335 255.148C278.235 252.195 271.969 249.6 265.567 247.376C252.665 242.898 239.289 239.924 225.705 238.513C222.129 238.137 218.533 237.881 214.938 237.732C213.456 241.37 211.791 244.929 209.949 248.398Z" fill="#F86D70"/>
<path opacity="0.15" d="M209.949 248.398C222.791 247.776 235.345 252.077 247.372 256.669C259.398 261.261 271.963 265.67 284.804 266.544C285.708 263.251 286.671 259.942 287.881 256.748C286.73 256.091 285.332 255.627 284.335 255.148C278.235 252.195 271.969 249.6 265.567 247.376C252.665 242.898 239.289 239.924 225.705 238.513C222.129 238.137 218.533 237.881 214.938 237.732C213.456 241.37 211.791 244.929 209.949 248.398Z" fill="black"/>
<path d="M300.179 166.362C306.379 166.112 312.426 168.323 317 172.514C321.575 176.704 324.306 182.534 324.597 188.73C324.664 191.758 324.385 194.782 323.767 197.747C320.843 213.671 314.877 229.817 318.428 245.613C319.47 250.274 321.327 254.778 321.673 259.538C321.78 261.844 321.709 264.155 321.461 266.45L319.564 289.228C322.231 292.191 325.812 294.867 328.731 297.622C331.65 300.378 334.307 303.602 335.245 307.498C335.668 309.555 335.797 311.661 335.631 313.754C335.581 314.821 335.463 315.996 334.687 316.717C333.912 317.438 332.292 317.26 332.139 316.223C331.605 317.615 329.398 317.497 328.415 316.376C327.432 315.255 327.269 313.66 326.978 312.194C326.495 309.748 325.538 307.419 324.162 305.34C323.535 306.268 323.668 307.488 323.545 308.599C323.422 309.71 322.76 310.999 321.639 310.994C320.285 310.994 319.772 309.251 319.589 307.908C319.337 306.017 318.937 304.091 317.929 302.476C316.922 300.862 315.193 299.568 313.282 299.548C313.568 299.636 313.826 299.798 314.028 300.019C314.23 300.239 314.37 300.51 314.433 300.802C312.485 301.521 310.387 301.738 308.333 301.434C307.156 301.294 306.027 300.879 305.039 300.225C303.389 299.054 302.51 297.045 302.199 295.045C301.888 293.045 302.051 291.011 302.075 288.986C302.174 280.543 299.685 272.312 297.22 264.233C295.324 258.022 293.63 251.889 294.208 245.43C294.484 242.344 295.245 239.327 295.689 236.261C297.285 225.151 294.702 213.34 298.86 202.907C299.295 201.805 299.818 200.665 299.68 199.49C299.473 198.456 298.994 197.496 298.292 196.71C296.258 194.057 293.86 191.703 291.17 189.718C291.702 188.985 292.097 188.162 292.336 187.289C294.208 180.144 295.581 172.154 300.179 166.362Z" fill="#FBBEBE"/>
<path d="M303.32 171.137C302.32 175.184 301.561 179.286 301.048 183.422C300.159 191.94 301.996 191.347 299.754 199.608C294.287 196.734 288.148 203.213 282.68 200.339C282.186 200.067 281.594 199.722 281.495 199.149C281.484 198.628 281.679 198.124 282.038 197.747C285.404 193.154 288.102 188.106 290.049 182.756C291.585 178.524 292.652 174.115 294.613 170.066C295.768 167.671 297.314 165.345 299.606 163.997C300.875 163.252 306.027 161.854 306.521 164.323C306.654 165.039 305.039 166.432 304.668 167.103C304.033 168.378 303.58 169.736 303.32 171.137Z" fill="#F86D70"/>
<path d="M290.533 211.434C302.295 211.434 311.83 201.902 311.83 190.143C311.83 178.384 302.295 168.851 290.533 168.851C278.771 168.851 269.236 178.384 269.236 190.143C269.236 201.902 278.771 211.434 290.533 211.434Z" fill="#EB7722"/>
<path d="M353.559 211.434C365.321 211.434 374.856 201.902 374.856 190.143C374.856 178.384 365.321 168.851 353.559 168.851C341.797 168.851 332.262 178.384 332.262 190.143C332.262 201.902 341.797 211.434 353.559 211.434Z" fill="#EB7722"/>
<path opacity="0.1" d="M348.378 211.434C357.281 211.434 364.499 203.175 364.499 192.987C364.499 182.798 357.281 174.539 348.378 174.539C339.475 174.539 332.257 182.798 332.257 192.987C332.257 203.175 339.475 211.434 348.378 211.434Z" fill="black"/>
<path opacity="0.1" d="M295.714 211.434C304.617 211.434 311.835 203.175 311.835 192.987C311.835 182.798 304.617 174.539 295.714 174.539C286.811 174.539 279.593 182.798 279.593 192.987C279.593 203.175 286.811 211.434 295.714 211.434Z" fill="black"/>
<path d="M397.891 276.914C397.278 283.54 391.964 290.008 385.306 290.048C382.343 290.048 379.543 288.888 376.91 287.54C374.628 286.369 372.376 285.016 370.722 283.056C370.48 282.77 370.258 282.478 370.045 282.177C367.408 278.434 366.855 273.467 364.558 269.438C360.434 262.194 351.623 259.261 343.513 257.33C334.961 255.291 326.308 253.706 317.589 252.58C311.662 251.81 305.641 251.257 299.705 251.988C287.071 253.543 275.662 260.792 263.083 262.451C262.658 262.505 262.233 262.555 261.803 262.599C257.852 262.994 253.847 262.796 249.886 263.162C243.292 263.769 236.802 265.942 230.194 265.493C223.586 265.043 216.449 260.737 215.98 254.136C215.649 249.484 218.81 245.134 222.81 242.739C226.811 240.345 231.538 239.53 236.146 238.863C248.379 237.091 260.939 235.965 272.2 230.909C276.23 229.101 280.053 226.805 284.216 225.334C286.068 224.668 287.993 224.226 289.95 224.016C292.4 223.735 294.881 224.051 297.181 224.939L291.254 227.19L349.124 223.107L351.406 222.949C354.147 222.756 356.937 222.564 359.619 223.171C364.232 224.218 368.015 227.526 370.934 231.259C373.853 234.992 376.031 239.234 378.767 243.11C382.615 248.541 387.489 253.163 391.436 258.515C395.382 263.868 398.498 270.292 397.891 276.914Z" fill="#EB7722"/>
<path opacity="0.1" d="M370.919 268.391C370.947 273 370.661 277.606 370.065 282.177C367.428 278.434 366.874 273.467 364.578 269.438C360.454 262.194 351.643 259.261 343.533 257.33C334.981 255.291 326.328 253.706 317.608 252.58C311.682 251.81 305.661 251.257 299.725 251.988C287.091 253.543 275.682 260.792 263.102 262.451C265.838 242.917 275.721 230.405 289.995 224.011C297.744 220.554 306.787 218.875 316.71 218.875C328.889 218.875 340.125 219.369 349.178 223.102C362.375 228.533 370.919 240.819 370.919 268.391Z" fill="black"/>
<path d="M368.144 270.361C368.144 280.795 366.894 288.952 364.612 295.321C359.012 310.939 347.232 315.833 332.573 317.304C327.634 317.798 322.394 317.907 316.942 317.907C310.069 317.957 303.226 317.006 296.628 315.082C284.404 311.404 274.373 304.041 269.271 292.556C266.52 286.374 265.201 279.002 265.735 270.361C267.779 237.397 288.661 222.801 316.942 222.801C345.222 222.801 368.144 225.729 368.144 270.361Z" fill="#2F2E41"/>
<path opacity="0.1" d="M322.049 252.565C344.124 252.565 362.019 234.674 362.019 212.604C362.019 190.534 344.124 172.643 322.049 172.643C299.973 172.643 282.078 190.534 282.078 212.604C282.078 234.674 299.973 252.565 322.049 252.565Z" fill="black"/>
<path d="M322.049 250.23C344.124 250.23 362.019 232.339 362.019 210.269C362.019 188.199 344.124 170.308 322.049 170.308C299.973 170.308 282.078 188.199 282.078 210.269C282.078 232.339 299.973 250.23 322.049 250.23Z" fill="#2F2E41"/>
<path d="M316.942 199.337C318.071 199.337 318.986 198.421 318.986 197.292C318.986 196.163 318.071 195.248 316.942 195.248C315.812 195.248 314.897 196.163 314.897 197.292C314.897 198.421 315.812 199.337 316.942 199.337Z" fill="#FBBEBE"/>
<path d="M326.859 199.337C327.988 199.337 328.904 198.421 328.904 197.292C328.904 196.163 327.988 195.248 326.859 195.248C325.73 195.248 324.814 196.163 324.814 197.292C324.814 198.421 325.73 199.337 326.859 199.337Z" fill="#FBBEBE"/>
<path opacity="0.1" d="M322.049 228.524C333.57 228.524 342.911 222.506 342.911 215.083C342.911 207.66 333.57 201.643 322.049 201.643C310.527 201.643 301.186 207.66 301.186 215.083C301.186 222.506 310.527 228.524 322.049 228.524Z" fill="black"/>
<path d="M322.049 227.773C332.927 227.773 341.745 222.092 341.745 215.083C341.745 208.075 332.927 202.393 322.049 202.393C311.17 202.393 302.352 208.075 302.352 215.083C302.352 222.092 311.17 227.773 322.049 227.773Z" fill="#EB7722"/>
<path opacity="0.1" d="M296.628 315.082C284.404 311.404 274.373 304.041 269.271 292.556C270.996 291.959 272.809 291.653 274.635 291.653C285.061 291.653 293.857 301.543 296.628 315.082Z" fill="black"/>
<path d="M296.371 326.222C296.371 344.18 286.118 358.742 273.469 358.742C264.9 358.742 257.432 352.066 253.506 342.171C251.524 337.088 250.518 331.677 250.543 326.222C250.543 308.258 260.801 293.697 273.449 293.697C284.863 293.697 294.331 305.547 296.065 321.082C296.265 322.788 296.367 324.504 296.371 326.222Z" fill="#2F2E41"/>
<path opacity="0.1" d="M296.371 326.222C296.371 344.18 286.118 358.742 273.469 358.742C264.9 358.742 257.432 352.066 253.506 342.171C254.128 329.17 267.266 318.781 283.387 318.781C287.731 318.756 292.044 319.53 296.109 321.062C296.295 322.775 296.383 324.498 296.371 326.222Z" fill="black"/>
<path d="M285.14 368.662C301.656 368.662 315.045 357.756 315.045 344.304C315.045 330.851 301.656 319.946 285.14 319.946C268.624 319.946 255.235 330.851 255.235 344.304C255.235 357.756 268.624 368.662 285.14 368.662Z" fill="#EB7722"/>
<path d="M287.397 368.662C302.664 368.662 315.04 358.442 315.04 345.835C315.04 333.227 302.664 323.007 287.397 323.007C272.13 323.007 259.754 333.227 259.754 345.835C259.754 358.442 272.13 368.662 287.397 368.662Z" fill="#2F2E41"/>
<path opacity="0.1" d="M297.245 343.025C299.905 343.025 302.061 340.332 302.061 337.011C302.061 333.689 299.905 330.997 297.245 330.997C294.586 330.997 292.43 333.689 292.43 337.011C292.43 340.332 294.586 343.025 297.245 343.025Z" fill="black"/>
<path d="M297.245 342.116C299.501 342.116 301.33 339.83 301.33 337.011C301.33 334.191 299.501 331.905 297.245 331.905C294.989 331.905 293.161 334.191 293.161 337.011C293.161 339.83 294.989 342.116 297.245 342.116Z" fill="#EB7722"/>
<path opacity="0.1" d="M282.952 347.513C285.748 347.513 288.014 345.097 288.014 342.116C288.014 339.136 285.748 336.719 282.952 336.719C280.156 336.719 277.889 339.136 277.889 342.116C277.889 345.097 280.156 347.513 282.952 347.513Z" fill="black"/>
<path d="M282.952 346.783C285.369 346.783 287.328 344.693 287.328 342.116C287.328 339.539 285.369 337.45 282.952 337.45C280.535 337.45 278.576 339.539 278.576 342.116C278.576 344.693 280.535 346.783 282.952 346.783Z" fill="#EB7722"/>
<path opacity="0.1" d="M275.074 358.752C278.056 358.752 280.473 356.789 280.473 354.367C280.473 351.945 278.056 349.982 275.074 349.982C272.093 349.982 269.676 351.945 269.676 354.367C269.676 356.789 272.093 358.752 275.074 358.752Z" fill="black"/>
<path d="M275.074 358.159C277.652 358.159 279.742 356.461 279.742 354.367C279.742 352.272 277.652 350.575 275.074 350.575C272.497 350.575 270.407 352.272 270.407 354.367C270.407 356.461 272.497 358.159 275.074 358.159Z" fill="#EB7722"/>
<path opacity="0.1" d="M299.975 363.27C305.117 358.8 307.39 352.998 305.053 350.31C302.715 347.623 296.652 349.068 291.51 353.538C286.369 358.008 284.095 363.81 286.433 366.498C288.771 369.185 294.834 367.74 299.975 363.27Z" fill="black"/>
<path d="M299.697 362.95C304.503 358.771 306.629 353.349 304.445 350.838C302.261 348.328 296.595 349.68 291.789 353.858C286.983 358.037 284.857 363.459 287.041 365.97C289.224 368.48 294.891 367.128 299.697 362.95Z" fill="#EB7722"/>
<path opacity="0.1" d="M364.612 295.321C359.012 310.939 347.232 315.833 332.573 317.304C334.944 302.935 344.027 292.235 354.868 292.235C358.352 292.264 361.747 293.339 364.612 295.321Z" fill="black"/>
<path d="M379.523 326.222C379.565 332.163 378.373 338.048 376.021 343.504C371.971 352.658 364.795 358.742 356.621 358.742C343.972 358.742 333.719 344.18 333.719 326.222C333.717 324.531 333.807 322.841 333.991 321.161C335.705 305.602 345.183 293.697 356.621 293.697C369.27 293.697 379.523 308.258 379.523 326.222Z" fill="#2F2E41"/>
<path opacity="0.1" d="M376.021 343.43V343.504C371.971 352.658 364.795 358.742 356.621 358.742C343.972 358.742 333.719 344.18 333.719 326.222C333.717 324.531 333.807 322.841 333.991 321.161C337.882 319.771 341.985 319.07 346.116 319.087C362.632 319.087 376.021 329.974 376.021 343.43Z" fill="black"/>
<path d="M344.95 368.662C361.467 368.662 374.856 357.756 374.856 344.304C374.856 330.851 361.467 319.946 344.95 319.946C328.434 319.946 315.045 330.851 315.045 344.304C315.045 357.756 328.434 368.662 344.95 368.662Z" fill="#EB7722"/>
<path d="M342.397 368.662C357.503 368.662 369.749 358.442 369.749 345.835C369.749 333.227 357.503 323.007 342.397 323.007C327.291 323.007 315.045 333.227 315.045 345.835C315.045 358.442 327.291 368.662 342.397 368.662Z" fill="#2F2E41"/>
<path opacity="0.1" d="M332.84 343.138C335.546 343.138 337.74 340.395 337.74 337.011C337.74 333.626 335.546 330.883 332.84 330.883C330.134 330.883 327.941 333.626 327.941 337.011C327.941 340.395 330.134 343.138 332.84 343.138Z" fill="black"/>
<path d="M332.84 342.116C335.096 342.116 336.925 339.83 336.925 337.011C336.925 334.191 335.096 331.905 332.84 331.905C330.584 331.905 328.756 334.191 328.756 337.011C328.756 339.83 330.584 342.116 332.84 342.116Z" fill="#EB7722"/>
<path opacity="0.1" d="M347.138 347.513C349.934 347.513 352.201 345.097 352.201 342.116C352.201 339.136 349.934 336.719 347.138 336.719C344.342 336.719 342.076 339.136 342.076 342.116C342.076 345.097 344.342 347.513 347.138 347.513Z" fill="black"/>
<path d="M347.138 346.783C349.555 346.783 351.514 344.693 351.514 342.116C351.514 339.539 349.555 337.45 347.138 337.45C344.722 337.45 342.762 339.539 342.762 342.116C342.762 344.693 344.722 346.783 347.138 346.783Z" fill="#EB7722"/>
<path opacity="0.1" d="M355.016 358.752C357.997 358.752 360.414 356.789 360.414 354.367C360.414 351.945 357.997 349.982 355.016 349.982C352.035 349.982 349.618 351.945 349.618 354.367C349.618 356.789 352.035 358.752 355.016 358.752Z" fill="black"/>
<path d="M355.016 358.159C357.594 358.159 359.683 356.461 359.683 354.367C359.683 352.272 357.594 350.575 355.016 350.575C352.438 350.575 350.349 352.272 350.349 354.367C350.349 356.461 352.438 358.159 355.016 358.159Z" fill="#EB7722"/>
<path opacity="0.1" d="M343.66 366.565C345.998 363.877 343.724 358.075 338.583 353.605C333.441 349.135 327.378 347.689 325.04 350.377C322.703 353.064 324.976 358.867 330.118 363.337C335.259 367.807 341.322 369.252 343.66 366.565Z" fill="black"/>
<path d="M343.052 366.036C345.236 363.526 343.11 358.103 338.304 353.925C333.498 349.747 327.832 348.395 325.648 350.905C323.464 353.416 325.59 358.838 330.396 363.016C335.202 367.195 340.869 368.547 343.052 366.036Z" fill="#EB7722"/>
<path d="M229.182 153.791C224.229 152.122 218.871 152.092 213.901 153.707C211.476 154.502 209.08 155.766 207.638 157.879C206.482 159.573 206.048 161.647 205.662 163.657C204.438 169.74 203.249 175.83 202.097 181.926C200.763 188.962 201.884 196.172 203.425 203.158C204.966 210.145 206.201 217.33 207.08 224.494C207.494 227.219 207.623 229.979 207.465 232.731C207.198 235.831 206.265 238.932 206.764 242.004C207.682 247.648 212.992 251.346 217.842 254.378C219.635 259.681 225.25 262.525 230.189 265.137C240.542 270.602 250.438 276.89 259.783 283.94C263.087 286.409 266.352 289.041 270.101 290.794C273.607 292.438 277.42 293.262 281.204 294.112L293.057 296.709C296.583 296.215 300.465 295.228 303.671 293.667C305.538 292.744 307.597 291.06 307.128 289.036C306.797 287.673 305.439 286.863 304.204 286.206C300.253 284.118 296.302 282.009 291.98 280.962C289.59 280.38 287.13 280.133 284.705 279.689C282.085 279.231 279.525 278.478 277.075 277.442C270.955 274.79 265.977 270.109 261.137 265.517C256.558 261.182 252.518 256.57 248.127 252.047C246.096 250.082 243.957 248.231 241.722 246.502C236.827 242.467 232.167 238.156 227.764 233.59C225.295 231.012 226.836 226.588 227.058 223.013C227.384 217.828 226.208 212.683 225.221 207.583C224.727 205.035 224.282 202.447 224.445 199.86C224.692 195.91 226.327 192.216 227.537 188.459C230.182 180.211 230.832 171.454 229.434 162.906C228.94 159.85 228.386 156.783 229.182 153.791Z" fill="#FBBEBE"/>
<path d="M301.932 114.783C310.486 113.183 314.64 102.364 312.166 94.0195C309.691 85.6748 302.732 79.5322 295.808 74.2686C284.503 65.6572 271.755 57.8802 257.585 56.8383C243.416 55.7965 227.764 63.5932 224.001 77.2855C221.561 86.1488 224.302 95.8712 221.571 104.651C217.62 117.331 203.549 124.436 198.417 136.687C192.327 151.243 200.551 167.409 202.763 183.032C206.744 211.177 187.902 240.838 160.713 249.198C170.759 250.585 180.963 251.785 191.014 250.502C201.064 249.218 211.12 245.193 217.842 237.604C221.027 234.005 223.571 229.551 227.873 227.403C230.441 226.124 233.36 225.813 236.16 225.201C252.385 221.665 265.231 206.289 265.829 189.703C266.263 177.66 260.959 166.13 259.981 154.117C258.904 140.849 263.557 127.774 271.884 117.518C282.927 103.925 288.256 117.34 301.932 114.783Z" fill="#2F2E41"/>
<path opacity="0.15" d="M312.166 94.5824C309.696 86.2376 302.732 80.0902 295.808 74.8315C292.027 71.923 288.095 69.2166 284.029 66.7237C285.165 67.5483 286.291 68.3877 287.402 69.2321C294.316 74.5006 301.29 80.6531 303.765 88.983C306.239 97.313 302.085 108.146 293.526 109.746C279.855 112.304 274.521 98.8832 263.478 112.477C255.151 122.732 250.498 135.808 251.58 149.075C252.568 161.089 257.857 172.618 257.422 184.662C256.825 201.248 243.979 216.624 227.759 220.159C224.954 220.771 222.035 221.082 219.467 222.361C215.165 224.509 212.621 228.963 209.436 232.563C202.714 240.152 192.668 244.176 182.612 245.46C178.424 245.975 174.2 246.14 169.984 245.954C167.017 247.509 163.914 248.788 160.713 249.776C170.759 251.163 180.963 252.368 191.014 251.084C201.064 249.8 211.12 245.776 217.842 238.182C221.027 234.582 223.571 230.133 227.873 227.985C230.441 226.702 233.36 226.395 236.16 225.783C252.385 222.243 265.231 206.872 265.829 190.281C266.263 178.238 260.959 166.708 259.981 154.699C258.904 141.432 263.557 128.352 271.884 118.101C282.927 104.507 288.256 117.923 301.932 115.37C310.486 113.746 314.64 102.927 312.166 94.5824Z" fill="black"/>
</g>
<defs>
<clipPath id="clip0">
<rect width="529" height="414" fill="white"/>
</clipPath>
</defs>
</svg>
